<?xml version="1.0" standalone="no"?>
<!DOCTYPE svg PUBLIC "-//W3C//DTD SVG 20010904//EN"
 "http://www.w3.org/TR/2001/REC-SVG-20010904/DTD/svg10.dtd">
<svg version="1.0" xmlns="http://www.w3.org/2000/svg"
 width="310.000000pt" height="310.000000pt" viewBox="0 0 310.000000 310.000000"
 preserveAspectRatio="xMidYMid meet">
<metadata>
Created by potrace 1.11, written by Peter Selinger 2001-2013
</metadata>
<g transform="translate(0.000000,310.000000) scale(0.100000,-0.100000)"
fill="#000000" stroke="none">
<path d="M2066 2389 c-6 -17 -86 -659 -86 -688 0 -34 15 -25 71 45 l53 67 27
221 c34 266 35 307 12 334 -23 27 -71 39 -77 21z"/>
<path d="M2474 1813 c-59 -71 -129 -151 -156 -179 l-50 -51 53 -104 c28 -57
90 -185 136 -284 109 -233 112 -225 -73 -225 -73 0 -145 5 -160 10 -15 6 -29
9 -31 6 -9 -8 46 -102 77 -131 31 -30 32 -30 165 -33 134 -4 134 -3 161 23 20
20 25 33 21 54 -3 15 -56 134 -116 263 -62 132 -111 249 -111 265 0 23 33 68
156 214 86 101 160 194 166 206 25 52 -17 93 -98 93 -29 0 -43 -12 -140 -127z"/>
<path d="M1467 1892 c-4 -20 -29 -219 -57 -442 -27 -223 -53 -422 -56 -443
l-6 -39 -115 4 -115 3 -29 33 c-19 21 -29 43 -29 63 l0 31 -46 -41 c-133 -117
-312 -135 -431 -44 -41 32 -44 32 -38 11 22 -70 94 -157 157 -189 111 -57 217
-44 371 42 35 20 39 20 60 5 94 -69 85 -66 179 -66 80 0 91 2 112 23 28 29 23
-2 91 549 37 302 52 455 46 471 -11 27 -27 42 -63 56 -24 9 -26 8 -31 -27z"/>
<path d="M1050 1821 c-153 -47 -258 -205 -263 -398 -3 -114 24 -183 72 -183
15 0 19 11 24 68 10 122 72 247 149 302 75 53 75 54 83 126 4 37 9 73 12 81 6
15 -34 17 -77 4z"/>
<path d="M1945 1428 c-2 -7 -13 -96 -25 -198 -12 -102 -24 -202 -27 -222 l-6
-38 -123 0 -124 0 -2 -27 c-3 -57 3 -79 28 -100 23 -21 35 -23 144 -23 65 0
126 3 135 6 29 12 44 60 64 215 23 177 27 192 52 186 15 -4 12 7 -16 73 -18
42 -40 91 -49 109 -17 31 -43 41 -51 19z"/>
</g>
</svg>
